#N canvas 1328 309 531 636 12;
#X obj 329 143 readsf~;
#X obj 329 191 dac~;
#X msg 257 65 0;
#X msg 293 65 1;
#X msg 98 93 open sound.wav;
#X obj 86 138 readsf~;
#X obj 86 186 dac~;
#X msg 16 61 0;
#X msg 52 61 1;
#X obj 329 59 openpanel;
#X msg 329 90 open \$1;
#X obj 329 16 bng 15 250 50 0 empty empty empty 17 7 0 10 -262144 -1
-1;
#X msg 91 61 open sound2.wav;
#X obj 165 289 soundfiler;
#X floatatom 165 318 10 0 0 0 - - -;
#X obj 39 364 expr 44100/$f1;
#X obj 38 446 phasor~;
#X obj 221 489 *~;
#X obj 220 527 tabread4~ soundData;
#X obj 219 578 dac~;
#X msg 12 337 0;
#N canvas 0 50 450 250 (subpatch) 0;
#X array soundData 1.03619e+007 float 2;
#X coords 0 1 1.03619e+007 -1 200 140 1;
#X restore 288 337 graph;
#X obj 56 395 hsl 128 15 0 0.01 0 0 empty empty empty -2 -8 0 10 -262144
-1 -1 0 1;
#X floatatom 109 447 5 0 0 0 - - -;
#X msg 165 264 read -resize sound2.wav soundData;
#X connect 0 0 1 1;
#X connect 0 0 1 0;
#X connect 2 0 0 0;
#X connect 3 0 0 0;
#X connect 4 0 5 0;
#X connect 5 0 6 1;
#X connect 5 0 6 0;
#X connect 7 0 5 0;
#X connect 8 0 5 0;
#X connect 9 0 10 0;
#X connect 10 0 0 0;
#X connect 11 0 9 0;
#X connect 12 0 5 0;
#X connect 13 0 14 0;
#X connect 14 0 15 0;
#X connect 14 0 17 1;
#X connect 15 0 16 0;
#X connect 16 0 17 0;
#X connect 17 0 18 0;
#X connect 18 0 19 0;
#X connect 18 0 19 1;
#X connect 20 0 16 0;
#X connect 22 0 16 0;
#X connect 22 0 23 0;
#X connect 24 0 13 0;
